<?xml version="1.0" encoding="UTF-8" standalone="no"?>
<!-- Uploaded to: SVG Repo, www.svgrepo.com, Generator: SVG Repo Mixer Tools -->

<svg
   width="800px"
   height="800px"
   viewBox="0 0 20 20"
   version="1.1"
   id="svg12"
   sodipodi:docname="key.svg"
   inkscape:version="1.2.2 (b0a8486541, 2022-12-01)"
   xmlns:inkscape="http://www.inkscape.org/namespaces/inkscape"
   xmlns:sodipodi="http://sodipodi.sourceforge.net/DTD/sodipodi-0.dtd"
   xmlns="http://www.w3.org/2000/svg"
   xmlns:svg="http://www.w3.org/2000/svg">
  <sodipodi:namedview
     id="namedview14"
     pagecolor="#ffffff"
     bordercolor="#000000"
     borderopacity="0.25"
     inkscape:showpageshadow="2"
     inkscape:pageopacity="0.0"
     inkscape:pagecheckerboard="0"
     inkscape:deskcolor="#d1d1d1"
     showgrid="false"
     inkscape:zoom="0.295"
     inkscape:cx="133.89831"
     inkscape:cy="400"
     inkscape:window-width="1280"
     inkscape:window-height="951"
     inkscape:window-x="0"
     inkscape:window-y="0"
     inkscape:window-maximized="1"
     inkscape:current-layer="svg12" />
  <title
     id="title2">key_round [#679]</title>
  <desc
     id="desc4">Created with Sketch.</desc>
  <defs
     id="defs6" />
  <g
     id="Page-1"
     stroke="none"
     stroke-width="1"
     fill="none"
     fill-rule="evenodd"
     style="fill:#808080;fill-opacity:1">
    <g
       id="Dribbble-Light-Preview"
       transform="translate(-420.000000, -5159.000000)"
       fill="#000000"
       style="fill:#808080;fill-opacity:1">
      <g
         id="icons"
         transform="translate(56.000000, 160.000000)"
         style="fill:#808080;fill-opacity:1">
        <path
           d="M378.022118,5008.95372 C375.82425,5008.95372 374.036864,5007.16802 374.036864,5004.97223 C374.036864,5002.77644 375.82425,5000.99074 378.022118,5000.99074 C380.219986,5000.99074 382.007373,5002.77644 382.007373,5004.97223 C382.007373,5007.16802 380.219986,5008.95372 378.022118,5008.95372 M378.022118,4999 C374.720335,4999 372.044236,5001.67357 372.044236,5004.97223 C372.044236,5006.26621 372.460695,5007.46165 373.161104,5008.4401 L368.354887,5013.24178 L366.963037,5011.85025 L365.554249,5013.2587 L366.946099,5014.64923 L364,5017.59254 L365.408787,5019 L366.829531,5017.5806 L368.210421,5018.96019 L369.620205,5017.55273 L368.238318,5016.17314 L370.210023,5014.2033 L371.61084,5015.6028 L373.019627,5014.19534 L371.61881,5012.79585 L374.57288,5009.84457 C375.548271,5010.53536 376.735877,5010.94446 378.022118,5010.94446 C381.323902,5010.94446 384,5008.27089 384,5004.97223 C384,5001.67357 381.323902,4999 378.022118,4999"
           id="key_round-[#679]"
           style="fill:#808080;fill-opacity:1" />
      </g>
    </g>
  </g>
</svg>
